HIERARCHY
ROOT Hips
{
	OFFSET 0.000000 100.481300 0.000000
	CHANNELS 6 Xposition Yposition Zposition Xrotation Yrotation Zrotation 
	JOINT Spine
	{
		OFFSET -0.279200 12.230698 -2.892100
		CHANNELS 3 Xrotation Yrotation Zrotation
		JOINT Spine1
		{
			OFFSET -0.232667 10.192268 -1.242267
			CHANNELS 3 Xrotation Yrotation Zrotation
			JOINT Spine1_split
			{
				OFFSET -0.232667 10.192268 -1.242267
				CHANNELS 3 Xrotation Yrotation Zrotation
				JOINT Spine2
				{
					OFFSET -0.232667 10.192268 -1.242267
					CHANNELS 3 Xrotation Yrotation Zrotation
					JOINT Neck
					{
						OFFSET -0.418800 17.814194 8.416900
						CHANNELS 3 Xrotation Yrotation Zrotation
						JOINT Head
						{
							OFFSET 0.000000 7.031097 3.806800
							CHANNELS 3 Xrotation Yrotation Zrotation
							JOINT HeadTop_End
							{
								OFFSET 0.000000 24.646606 12.978600
								CHANNELS 3 Xrotation Yrotation Zrotation
								End Site
								{
									OFFSET 0.000000 0.000000 0.000000
								}
							}
						}
					}
					JOINT LeftShoulder
					{
						OFFSET 8.476499 7.247704 -3.868750
						CHANNELS 3 Xrotation Yrotation Zrotation
						JOINT LeftShoulder_split
						{
							OFFSET 8.476499 7.247704 -3.868750
							CHANNELS 3 Xrotation Yrotation Zrotation
							JOINT LeftArm
							{
								OFFSET 9.308998 -2.777710 0.208600
								CHANNELS 3 Xrotation Yrotation Zrotation
								JOINT LeftForeArm
								{
									OFFSET 29.972298 0.000000 0.000000
									CHANNELS 3 Xrotation Yrotation Zrotation
									JOINT LeftHand
									{
										OFFSET 26.026505 0.000000 0.000000
										CHANNELS 3 Xrotation Yrotation Zrotation
										JOINT LeftHandThumb1
										{
											OFFSET 12.240501 -7.147949 9.207150
											CHANNELS 3 Xrotation Yrotation Zrotation
											JOINT LeftHandThumb2
											{
												OFFSET 4.138618 -2.389435 2.389433
												CHANNELS 3 Xrotation Yrotation Zrotation
												JOINT LeftHandThumb3
												{
													OFFSET 2.726913 -1.574387 1.574386
													CHANNELS 3 Xrotation Yrotation Zrotation
													JOINT LeftHandThumb4
													{
														OFFSET 3.941010 -2.275345 2.275342
														CHANNELS 3 Xrotation Yrotation Zrotation
														End Site
														{
															OFFSET 0.000000 0.000000 0.000000
														}
													}
												}
											}
										}
										JOINT LeftHandIndex1
										{
											OFFSET 24.424698 -1.985611 5.953459
											CHANNELS 3 Xrotation Yrotation Zrotation
											JOINT LeftHandIndex2
											{
												OFFSET 6.426697 0.000000 0.000000
												CHANNELS 3 Xrotation Yrotation Zrotation
												JOINT LeftHandIndex3
												{
													OFFSET 5.337898 0.000000 0.000000
													CHANNELS 3 Xrotation Yrotation Zrotation
													JOINT LeftHandIndex4
													{
														OFFSET 4.409401 0.000000 0.000000
														CHANNELS 3 Xrotation Yrotation Zrotation
														End Site
														{
															OFFSET 0.000000 0.000000 0.000000
														}
													}
												}
											}
										}
										JOINT LeftHandMiddle1
										{
											OFFSET 23.810104 0.000000 0.000000
											CHANNELS 3 Xrotation Yrotation Zrotation
											JOINT LeftHandMiddle2
											{
												OFFSET 7.176498 0.000000 0.000000
												CHANNELS 3 Xrotation Yrotation Zrotation
												JOINT LeftHandMiddle3
												{
													OFFSET 6.774902 0.000000 0.000000
													CHANNELS 3 Xrotation Yrotation Zrotation
													JOINT LeftHandMiddle4
													{
														OFFSET 5.403328 0.000000 0.000000
														CHANNELS 3 Xrotation Yrotation Zrotation
														End Site
														{
															OFFSET 0.000000 0.000000 0.000000
														}
													}
												}
											}
										}
										JOINT LeftHandRing1
										{
											OFFSET 22.908401 -0.839279 -6.020567
											CHANNELS 3 Xrotation Yrotation Zrotation
											JOINT LeftHandRing2
											{
												OFFSET 6.337502 0.000000 0.000000
												CHANNELS 3 Xrotation Yrotation Zrotation
												JOINT LeftHandRing3
												{
													OFFSET 5.779297 0.000000 0.000000
													CHANNELS 3 Xrotation Yrotation Zrotation
													JOINT LeftHandRing4
													{
														OFFSET 4.965698 0.000000 0.000000
														CHANNELS 3 Xrotation Yrotation Zrotation
														End Site
														{
															OFFSET 0.000000 0.000000 0.000000
														}
													}
												}
											}
										}
										JOINT LeftHandPinky1
										{
											OFFSET 20.037003 -1.530319 -10.950146
											CHANNELS 3 Xrotation Yrotation Zrotation
											JOINT LeftHandPinky2
											{
												OFFSET 5.254700 0.000000 0.000000
												CHANNELS 3 Xrotation Yrotation Zrotation
												JOINT LeftHandPinky3
												{
													OFFSET 4.810204 0.000000 0.000000
													CHANNELS 3 Xrotation Yrotation Zrotation
													JOINT LeftHandPinky4
													{
														OFFSET 3.647202 0.000000 0.000000
														CHANNELS 3 Xrotation Yrotation Zrotation
														End Site
														{
															OFFSET 0.000000 0.000000 0.000000
														}
													}
												}
											}
										}
									}
								}
							}
						}
					}
					JOINT RightShoulder
					{
						OFFSET -7.570500 7.247704 -3.868750
						CHANNELS 3 Xrotation Yrotation Zrotation
						JOINT RightShoulder_split
						{
							OFFSET -7.570500 7.247704 -3.868750
							CHANNELS 3 Xrotation Yrotation Zrotation
							JOINT RightArm
							{
								OFFSET -9.308998 -2.777710 0.208500
								CHANNELS 3 Xrotation Yrotation Zrotation
								JOINT RightForeArm
								{
									OFFSET -29.972300 0.000000 0.000000
									CHANNELS 3 Xrotation Yrotation Zrotation
									JOINT RightHand
									{
										OFFSET -26.026505 0.000000 0.000000
										CHANNELS 3 Xrotation Yrotation Zrotation
										JOINT RightHandThumb1
										{
											OFFSET -12.240601 -7.148026 9.207092
											CHANNELS 3 Xrotation Yrotation Zrotation
											JOINT RightHandThumb2
											{
												OFFSET -4.138618 -2.389435 2.389433
												CHANNELS 3 Xrotation Yrotation Zrotation
												JOINT RightHandThumb3
												{
													OFFSET -2.726974 -1.574417 1.574421
													CHANNELS 3 Xrotation Yrotation Zrotation
													JOINT RightHandThumb4
													{
														OFFSET -3.941010 -2.275345 2.275343
														CHANNELS 3 Xrotation Yrotation Zrotation
														End Site
														{
															OFFSET 0.000000 0.000000 0.000000
														}
													}
												}
											}
										}
										JOINT RightHandIndex1
										{
											OFFSET -24.424698 -1.985657 5.953444
											CHANNELS 3 Xrotation Yrotation Zrotation
											JOINT RightHandIndex2
											{
												OFFSET -6.426697 0.000000 0.000000
												CHANNELS 3 Xrotation Yrotation Zrotation
												JOINT RightHandIndex3
												{
													OFFSET -5.337898 0.000000 0.000000
													CHANNELS 3 Xrotation Yrotation Zrotation
													JOINT RightHandIndex4
													{
														OFFSET -4.409401 0.000000 0.000000
														CHANNELS 3 Xrotation Yrotation Zrotation
														End Site
														{
															OFFSET 0.000000 0.000000 0.000000
														}
													}
												}
											}
										}
										JOINT RightHandMiddle1
										{
											OFFSET -23.810097 0.000000 0.000000
											CHANNELS 3 Xrotation Yrotation Zrotation
											JOINT RightHandMiddle2
											{
												OFFSET -7.176498 0.000000 0.000000
												CHANNELS 3 Xrotation Yrotation Zrotation
												JOINT RightHandMiddle3
												{
													OFFSET -6.774902 0.000000 0.000000
													CHANNELS 3 Xrotation Yrotation Zrotation
													JOINT RightHandMiddle4
													{
														OFFSET -5.403328 0.000000 0.000000
														CHANNELS 3 Xrotation Yrotation Zrotation
														End Site
														{
															OFFSET 0.000000 0.000000 0.000000
														}
													}
												}
											}
										}
										JOINT RightHandRing1
										{
											OFFSET -22.908302 -0.839325 -6.020576
											CHANNELS 3 Xrotation Yrotation Zrotation
											JOINT RightHandRing2
											{
												OFFSET -6.337502 0.000000 0.000000
												CHANNELS 3 Xrotation Yrotation Zrotation
												JOINT RightHandRing3
												{
													OFFSET -5.779297 0.000000 0.000000
													CHANNELS 3 Xrotation Yrotation Zrotation
													JOINT RightHandRing4
													{
														OFFSET -4.965698 0.000000 0.000000
														CHANNELS 3 Xrotation Yrotation Zrotation
														End Site
														{
															OFFSET 0.000000 0.000000 0.000000
														}
													}
												}
											}
										}
										JOINT RightHandPinky1
										{
											OFFSET -20.037003 -1.530334 -10.950259
											CHANNELS 3 Xrotation Yrotation Zrotation
											JOINT RightHandPinky2
											{
												OFFSET -5.254700 0.000000 0.000000
												CHANNELS 3 Xrotation Yrotation Zrotation
												JOINT RightHandPinky3
												{
													OFFSET -4.810204 0.000000 0.000000
													CHANNELS 3 Xrotation Yrotation Zrotation
													JOINT RightHandPinky4
													{
														OFFSET -3.647202 0.000000 0.000000
														CHANNELS 3 Xrotation Yrotation Zrotation
														End Site
														{
															OFFSET 0.000000 0.000000 0.000000
														}
													}
												}
											}
										}
									}
								}
							}
						}
					}
				}
			}
		}
	}
	JOINT LeftUpLeg
	{
		OFFSET 15.427100 -6.655098 0.678600
		CHANNELS 3 Xrotation Yrotation Zrotation
		JOINT LeftLeg
		{
			OFFSET 4.081073 -39.591068 13.024000
			CHANNELS 3 Xrotation Yrotation Zrotation
			JOINT LeftFoot
			{
				OFFSET -4.081074 -37.707932 -15.979700
				CHANNELS 3 Xrotation Yrotation Zrotation
				JOINT LeftToeBase
				{
					OFFSET 5.346399 -15.068900 20.645000
					CHANNELS 3 Xrotation Yrotation Zrotation
					JOINT LeftToe_End
					{
						OFFSET 2.754700 0.931300 11.300900
						CHANNELS 3 Xrotation Yrotation Zrotation
						End Site
						{
							OFFSET 0.000000 0.000000 0.000000
						}
					}
				}
			}
		}
	}
	JOINT RightUpLeg
	{
		OFFSET -15.569500 -6.655098 0.678600
		CHANNELS 3 Xrotation Yrotation Zrotation
		JOINT RightLeg
		{
			OFFSET -4.081825 -39.591045 13.023800
			CHANNELS 3 Xrotation Yrotation Zrotation
			JOINT RightFoot
			{
				OFFSET 4.081824 -37.707954 -15.979600
				CHANNELS 3 Xrotation Yrotation Zrotation
				JOINT RightToeBase
				{
					OFFSET -5.346400 -15.068900 20.645000
					CHANNELS 3 Xrotation Yrotation Zrotation
					JOINT RightToe_End
					{
						OFFSET -2.754700 0.931300 11.300900
						CHANNELS 3 Xrotation Yrotation Zrotation
						End Site
						{
							OFFSET 0.000000 0.000000 0.000000
						}
					}
				}
			}
		}
	}
}
MOTION
Frames: 4
Frame Time: 0.016667
11.671961 95.944290 -4.695264 -0.399866 -19.190233 -2.440166 4.343772 1.230629 -2.239873 0.212745 0.451139 -0.248039 0.000000 0.000000 0.000000 0.209997 0.457548 -0.249457 -0.676047 0.363724 3.241257 11.273845 13.135226 10.728865 -0.000002 0.000000 0.000001 2.666470 -4.458574 -11.991963 0.000000 0.000000 0.000000 -11.925375 -18.438340 -60.942616 0.000002 -15.296895 0.000005 21.654174 -9.509523 -12.534863 3.397825 -6.557745 3.595391 15.782411 22.471708 8.580116 -7.032752 9.518562 11.683298 -0.000001 0.000000 0.000003 -1.195638 -0.465179 -28.245552 0.364153 2.035049 -20.288317 0.055332 0.804076 -7.871642 0.000000 -0.000001 0.000000 0.355581 4.762383 -38.285990 0.507593 2.387216 -24.004924 0.209300 1.553472 -15.345796 -0.000003 0.000001 0.000002 6.488003 10.665019 -48.294020 0.477654 2.318872 -23.275652 0.453821 2.262716 -22.679223 -0.000001 0.000000 -0.000001 12.833114 15.275955 -52.520111 0.697257 2.773796 -28.215325 1.059315 3.361602 -34.972850 -0.000000 0.000000 -0.000002 2.229754 0.128997 15.927383 0.000000 0.000000 0.000000 5.674413 -0.408643 64.436934 0.000000 15.408087 0.000014 1.035991 6.325153 -5.049642 -1.352784 9.111909 0.370097 16.874390 -29.512776 -6.239153 -14.986407 -10.661141 -18.063089 0.000001 -0.000001 0.000001 -1.055115 2.974097 11.633327 0.216274 -1.404173 17.511907 0.062043 -0.758464 9.352616 -0.000001 -0.000000 -0.000002 -0.609023 -1.094601 18.696405 0.373076 -1.828104 23.066775 0.371446 -1.824292 23.015861 -0.000001 -0.000001 -0.000003 1.805370 -6.986254 25.613592 0.549366 -2.196233 28.084459 0.545487 -2.188956 27.983066 0.000000 -0.000000 0.000000 4.328851 -11.691949 36.199043 0.703974 -2.463961 31.885748 0.868060 -2.709721 35.520255 0.000001 0.000000 -0.000000 -9.016677 6.399866 0.034985 17.917420 8.448903 2.361002 -10.243177 20.377016 0.140098 -10.632976 -0.000003 -0.000000 0.000001 0.000000 0.000000 -13.289280 -7.377718 -11.459020 14.082120 3.155427 2.598817 -11.838857 -3.903181 6.853365 -8.407006 0.000011 0.000002 0.000001 0.000000 0.000001 
11.926589 95.962341 -4.583323 -0.321912 -19.490722 -2.551233 4.282756 0.975811 -2.308667 0.189583 0.383773 -0.265578 0.000000 0.000000 0.000000 0.187299 0.390523 -0.267590 -0.708657 0.408955 3.345580 11.332363 13.840953 11.023655 -0.000001 0.000000 0.000000 2.653987 -4.597921 -11.892587 0.000000 0.000000 0.000000 -12.075098 -19.153008 -61.241231 0.000008 -15.715090 0.000031 21.497073 -9.669884 -10.948839 3.397823 -6.557747 3.595391 15.782119 22.476862 8.582050 -6.906145 9.605760 11.585845 -0.000001 0.000001 -0.000003 -1.165821 -0.588587 -27.380961 0.367657 2.044481 -20.386812 0.056527 0.812720 -7.956795 -0.000002 -0.000001 0.000001 0.364655 4.782504 -38.483249 0.512341 2.397854 -24.118644 0.206252 1.542325 -15.232966 0.000002 -0.000002 0.000001 6.537723 10.676695 -48.526879 0.471580 2.304703 -23.125079 0.448276 2.249417 -22.538465 -0.000001 0.000002 -0.000000 12.766411 15.313062 -52.209560 0.688198 2.756868 -28.027512 1.060802 3.363726 -34.998244 0.000000 0.000001 -0.000001 2.263678 -0.037343 16.070477 0.000000 0.000000 0.000000 5.438911 -0.171339 64.671475 0.000000 15.685828 0.000000 1.013124 5.195179 -3.929809 -1.352781 9.111910 0.370098 16.862012 -29.498317 -6.250184 -15.020587 -10.555996 -18.134770 -0.000001 0.000001 -0.000002 -1.134068 2.859895 12.607715 0.219260 -1.413572 17.633011 0.056860 -0.726298 8.952610 0.000001 -0.000001 -0.000002 -0.612863 -1.120409 18.937854 0.356227 -1.788059 22.533006 0.363202 -1.804760 22.755303 -0.000001 -0.000002 -0.000000 1.775706 -6.972115 25.217374 0.529210 -2.158063 27.553878 0.545460 -2.188905 27.982395 0.000001 -0.000000 0.000001 4.168389 -11.681603 35.243622 0.685223 -2.433590 31.446912 0.865410 -2.706005 35.464098 0.000000 0.000000 -0.000000 -9.034471 6.387403 -0.035106 17.869283 8.447702 2.370256 -10.240176 20.662302 0.295388 -10.597749 -0.000003 0.000000 -0.000001 0.000001 0.000000 -13.358620 -7.335230 -11.428644 13.955388 3.260882 2.615890 -11.930881 -3.924511 6.768159 -8.391431 -0.000004 -0.000004 0.000001 0.000000 -0.000000 
12.166447 95.984894 -4.475068 -0.219791 -19.774817 -2.641030 4.207713 0.704019 -2.402423 0.165080 0.312362 -0.289361 0.000000 0.000000 0.000000 0.163354 0.319514 -0.292051 -0.743324 0.449651 3.455309 11.434277 14.520115 11.315076 0.000001 -0.000000 0.000001 2.633635 -4.716143 -11.762448 0.000000 0.000000 0.000000 -12.145290 -19.959025 -61.514623 -0.000011 -16.226677 -0.000003 21.493166 -9.651165 -9.215249 3.397822 -6.557747 3.595386 15.782096 22.484721 8.583422 -6.808636 9.671995 11.511688 0.000002 -0.000000 0.000000 -1.129450 -0.729828 -26.391100 0.368795 2.047564 -20.418652 0.057699 0.821076 -8.039250 -0.000001 -0.000002 0.000001 0.367287 4.788597 -38.547009 0.516960 2.408102 -24.228757 0.203840 1.533442 -15.142968 0.000001 0.000000 -0.000001 6.588677 10.690108 -48.752483 0.466766 2.293422 -23.004980 0.442775 2.236103 -22.397765 -0.000001 -0.000000 0.000001 12.724901 15.349696 -51.963202 0.679191 2.739900 -27.839764 1.059286 3.361576 -34.972467 0.000000 0.000000 0.000000 2.301188 -0.222087 16.229416 0.000000 0.000000 0.000000 5.160324 0.078143 64.897794 -0.000001 15.935549 0.000021 1.068248 3.974132 -2.851362 -1.352783 9.111908 0.370101 16.865291 -29.501735 -6.248115 -15.045003 -10.477216 -18.185256 0.000001 0.000001 0.000001 -1.209426 2.733156 13.613606 0.224443 -1.429762 17.841796 0.052506 -0.698130 8.602704 0.000000 0.000000 -0.000002 -0.620056 -1.162469 19.354185 0.341806 -1.752906 22.066097 0.352913 -1.780054 22.426535 0.000000 0.000000 -0.000002 1.768458 -6.976983 25.051962 0.508415 -2.117757 26.996434 0.542681 -2.183671 27.909551 -0.000000 0.000000 0.000001 4.032110 -11.667263 34.463362 0.664841 -2.399975 30.963566 0.863337 -2.703102 35.420227 -0.000001 -0.000000 -0.000000 -9.068421 6.370897 -0.110199 17.804172 8.445663 2.379946 -10.233538 20.943638 0.446480 -10.562541 -0.000002 -0.000000 -0.000001 -0.000001 -0.000000 -13.438593 -7.293456 -11.410544 13.829966 3.323487 2.620786 -12.036738 -3.951728 6.705589 -8.375870 -0.000001 -0.000001 0.000000 0.000001 0.000000 
12.394177 96.014946 -4.369605 -0.083488 -20.050796 -2.715860 4.109972 0.426943 -2.516319 0.138035 0.240252 -0.315975 0.000000 0.000000 0.000000 0.136931 0.247832 -0.319408 -0.779925 0.485277 3.569737 11.569301 15.164367 11.594003 -0.000001 0.000000 -0.000000 2.611131 -4.805594 -11.630851 0.000000 0.000000 0.000000 -12.175091 -20.855178 -61.745258 0.000003 -16.823738 0.000005 21.773858 -9.467329 -7.469707 3.397822 -6.557750 3.595392 15.782463 22.486817 8.582366 -6.767615 9.701830 11.479318 -0.000000 -0.000000 0.000003 -1.094907 -0.883142 -25.362217 0.367664 2.044533 -20.387158 0.059033 0.830391 -8.130979 0.000001 0.000000 -0.000002 0.363613 4.781225 -38.484062 0.522136 2.419552 -24.351236 0.202286 1.527692 -15.084987 0.000000 0.000000 -0.000000 6.647715 10.706584 -49.003588 0.463671 2.286125 -22.927588 0.437446 2.223142 -22.260601 -0.000000 0.000001 -0.000002 12.730806 15.396611 -51.808839 0.670468 2.723333 -27.656730 1.054729 3.355048 -34.894439 -0.000001 -0.000000 0.000000 2.342157 -0.439312 16.405413 0.000000 0.000000 0.000000 4.855270 0.354275 65.099168 0.000005 16.165746 -0.000019 1.199194 2.678667 -1.823899 -1.352783 9.111909 0.370099 16.871588 -29.508753 -6.243234 -15.062447 -10.421734 -18.221029 -0.000003 -0.000001 0.000001 -1.296309 2.624671 14.634724 0.231595 -1.451797 18.126299 0.049088 -0.675115 8.317026 -0.000000 -0.000000 -0.000002 -0.630223 -1.217378 19.921760 0.330240 -1.724115 21.684929 0.341750 -1.752769 22.064320 0.000001 -0.000000 -0.000005 1.780253 -6.994587 25.111513 0.487749 -2.076728 26.431833 0.536419 -2.171818 27.744809 0.000002 -0.000000 -0.000003 3.913100 -11.644068 33.865902 0.643810 -2.364601 30.457695 0.863360 -2.703138 35.420798 -0.000001 -0.000000 -0.000000 -9.130540 6.341563 -0.192436 17.727922 8.444208 2.405356 -10.241555 21.237073 0.594249 -10.527360 -0.000006 -0.000000 -0.000000 0.000001 0.000000 -13.536690 -7.250213 -11.388527 13.685277 3.367146 2.625151 -12.123746 -3.979571 6.642217 -8.360317 0.000008 -0.000001 0.000002 -0.000002 0.000001 
